# xmcd CD database file
#
# Track frame offsets:
#	150
#	6600
#	16221
#	35138
#	60648
#	75997
#	92602
#	109296
#	165773
#	198608
#	211123
#	240821
#	260160
#
# Disc length: 3782 seconds
#
# Revision: 0
# Processed by: cddbd v1.5.2PL0 Copyright (c) Steve Scherf et al.
# Submitted via: CDex 1.51
#
DISCID=a00ec40d
DTITLE=Butterfield,Paul Blues Band - Got A Mind To Give Up Living: Live 1969
DYEAR=1969
DGENRE=Blues
TTITLE0=Instrumental Intro
TTITLE1=Look Over Yonders Wall
TTITLE2=Born In Chicago
TTITLE3=Love Her With A Feeling
TTITLE4=Get Out Of My Life, Woman
TTITLE5=Never Say No
TTITLE6=One More Heartache
TTITLE7=Work Song
TTITLE8=Comin' Home Baby
TTITLE9=Memory Pain
TTITLE10=I Got A Mind To Give Up Living
TTITLE11=Walking By Myself
TTITLE12=Got My Mojo Working
EXTD=YEAR: 1969
EXTT0=
EXTT1=
EXTT2=
EXTT3=
EXTT4=
EXTT5=
EXTT6=
EXTT7=
EXTT8=
EXTT9=
EXTT10=
EXTT11=
EXTT12=
PLAYORDER=
